<mxfile host="65bd71144e">
    <diagram id="x2j1Rhim9ssBAi3vaH40" name="PÃ¡gina-1">
        <mxGraphModel dx="1813" dy="1006" grid="1" gridSize="10" guides="1" tooltips="1" connect="1" arrows="1" fold="1" page="1" pageScale="1" pageWidth="827" pageHeight="1169" math="0" shadow="0">
            <root>
                <mxCell id="0"/>
                <mxCell id="1" parent="0"/>
                <mxCell id="16" style="edgeStyle=none;html=1;entryX=1;entryY=0.5;entryDx=0;entryDy=0;" parent="1" source="15" edge="1">
                    <mxGeometry relative="1" as="geometry">
                        <mxPoint x="289.99882352941177" y="170" as="targetPoint"/>
                        <Array as="points">
                            <mxPoint x="340" y="240"/>
                        </Array>
                    </mxGeometry>
                </mxCell>
                <mxCell id="36" style="edgeStyle=none;html=1;" parent="1" source="35" target="37" edge="1">
                    <mxGeometry relative="1" as="geometry">
                        <mxPoint x="220" y="170" as="targetPoint"/>
                    </mxGeometry>
                </mxCell>
                <mxCell id="35" value="1" style="whiteSpace=wrap;html=1;aspect=fixed;" parent="1" vertex="1">
                    <mxGeometry x="180" y="40" width="80" height="80" as="geometry"/>
                </mxCell>
                <mxCell id="38" style="edgeStyle=none;html=1;" parent="1" source="37" target="39" edge="1">
                    <mxGeometry relative="1" as="geometry">
                        <mxPoint x="220" y="280" as="targetPoint"/>
                    </mxGeometry>
                </mxCell>
                <mxCell id="37" value="2&lt;br&gt;try" style="ellipse;whiteSpace=wrap;html=1;aspect=fixed;" parent="1" vertex="1">
                    <mxGeometry x="180" y="150" width="80" height="80" as="geometry"/>
                </mxCell>
                <mxCell id="40" style="edgeStyle=none;html=1;" parent="1" source="39" target="41" edge="1">
                    <mxGeometry relative="1" as="geometry">
                        <mxPoint x="220" y="390" as="targetPoint"/>
                    </mxGeometry>
                </mxCell>
                <mxCell id="42" style="edgeStyle=none;html=1;" parent="1" source="39" target="43" edge="1">
                    <mxGeometry relative="1" as="geometry">
                        <mxPoint x="120" y="340" as="targetPoint"/>
                    </mxGeometry>
                </mxCell>
                <mxCell id="39" value="3" style="whiteSpace=wrap;html=1;aspect=fixed;" parent="1" vertex="1">
                    <mxGeometry x="180" y="260" width="80" height="80" as="geometry"/>
                </mxCell>
                <mxCell id="45" value="T" style="edgeStyle=none;html=1;" parent="1" source="41" target="49" edge="1">
                    <mxGeometry relative="1" as="geometry">
                        <mxPoint x="300" y="510" as="targetPoint"/>
                    </mxGeometry>
                </mxCell>
                <mxCell id="47" value="F" style="edgeStyle=none;html=1;" parent="1" source="41" target="48" edge="1">
                    <mxGeometry relative="1" as="geometry">
                        <mxPoint x="220" y="570" as="targetPoint"/>
                    </mxGeometry>
                </mxCell>
                <mxCell id="41" value="4&lt;br&gt;i!=1" style="ellipse;whiteSpace=wrap;html=1;aspect=fixed;" parent="1" vertex="1">
                    <mxGeometry x="180" y="380" width="80" height="80" as="geometry"/>
                </mxCell>
                <mxCell id="69" style="edgeStyle=none;html=1;entryX=0.25;entryY=0;entryDx=0;entryDy=0;" edge="1" parent="1" source="43" target="66">
                    <mxGeometry relative="1" as="geometry"/>
                </mxCell>
                <mxCell id="43" value="5&lt;br&gt;catch FileNotFoundException" style="whiteSpace=wrap;html=1;aspect=fixed;" parent="1" vertex="1">
                    <mxGeometry x="40" y="310" width="80" height="80" as="geometry"/>
                </mxCell>
                <mxCell id="52" value="T" style="edgeStyle=none;html=1;" parent="1" source="48" target="55" edge="1">
                    <mxGeometry relative="1" as="geometry">
                        <mxPoint x="170" y="670" as="targetPoint"/>
                    </mxGeometry>
                </mxCell>
                <mxCell id="68" value="F" style="edgeStyle=none;html=1;entryX=0.36;entryY=-0.016;entryDx=0;entryDy=0;entryPerimeter=0;" edge="1" parent="1" source="48" target="66">
                    <mxGeometry relative="1" as="geometry">
                        <mxPoint x="120" y="660" as="targetPoint"/>
                    </mxGeometry>
                </mxCell>
                <mxCell id="48" value="6&lt;br&gt;fichero!=null" style="ellipse;whiteSpace=wrap;html=1;aspect=fixed;" parent="1" vertex="1">
                    <mxGeometry x="110" y="520" width="80" height="80" as="geometry"/>
                </mxCell>
                <mxCell id="50" style="edgeStyle=none;html=1;entryX=0;entryY=0.5;entryDx=0;entryDy=0;" parent="1" source="49" target="51" edge="1">
                    <mxGeometry relative="1" as="geometry">
                        <mxPoint x="500" y="567.2727272727275" as="targetPoint"/>
                    </mxGeometry>
                </mxCell>
                <mxCell id="54" style="edgeStyle=none;html=1;entryX=1;entryY=0.5;entryDx=0;entryDy=0;" parent="1" source="49" target="41" edge="1">
                    <mxGeometry relative="1" as="geometry">
                        <mxPoint x="390" y="390" as="targetPoint"/>
                        <Array as="points">
                            <mxPoint x="400" y="560"/>
                            <mxPoint x="400" y="420"/>
                        </Array>
                    </mxGeometry>
                </mxCell>
                <mxCell id="49" value="7" style="whiteSpace=wrap;html=1;aspect=fixed;" parent="1" vertex="1">
                    <mxGeometry x="270" y="520" width="80" height="80" as="geometry"/>
                </mxCell>
                <mxCell id="63" style="edgeStyle=none;html=1;entryX=0.75;entryY=0;entryDx=0;entryDy=0;" edge="1" parent="1" source="51" target="66">
                    <mxGeometry relative="1" as="geometry">
                        <mxPoint x="230" y="1140" as="targetPoint"/>
                        <Array as="points">
                            <mxPoint x="400" y="880"/>
                        </Array>
                    </mxGeometry>
                </mxCell>
                <mxCell id="51" value="8&lt;br&gt;catch IOException" style="whiteSpace=wrap;html=1;aspect=fixed;" parent="1" vertex="1">
                    <mxGeometry x="360" y="620" width="80" height="80" as="geometry"/>
                </mxCell>
                <mxCell id="56" style="edgeStyle=none;html=1;" parent="1" source="55" target="57" edge="1">
                    <mxGeometry relative="1" as="geometry">
                        <mxPoint x="170" y="800" as="targetPoint"/>
                    </mxGeometry>
                </mxCell>
                <mxCell id="55" value="9&lt;br&gt;try" style="ellipse;whiteSpace=wrap;html=1;aspect=fixed;" parent="1" vertex="1">
                    <mxGeometry x="200" y="630" width="80" height="80" as="geometry"/>
                </mxCell>
                <mxCell id="58" style="edgeStyle=none;html=1;" parent="1" source="57" target="59" edge="1">
                    <mxGeometry relative="1" as="geometry">
                        <mxPoint x="300" y="870" as="targetPoint"/>
                    </mxGeometry>
                </mxCell>
                <mxCell id="60" style="edgeStyle=none;html=1;entryX=0.5;entryY=0;entryDx=0;entryDy=0;" parent="1" source="57" target="66" edge="1">
                    <mxGeometry relative="1" as="geometry">
                        <mxPoint x="184.66666666666663" y="1100" as="targetPoint"/>
                    </mxGeometry>
                </mxCell>
                <mxCell id="57" value="10" style="whiteSpace=wrap;html=1;aspect=fixed;" parent="1" vertex="1">
                    <mxGeometry x="150" y="730" width="80" height="80" as="geometry"/>
                </mxCell>
                <mxCell id="62" style="edgeStyle=none;html=1;entryX=0.605;entryY=-0.006;entryDx=0;entryDy=0;entryPerimeter=0;" edge="1" parent="1" source="59" target="66">
                    <mxGeometry relative="1" as="geometry">
                        <mxPoint x="201.20000000000005" y="1098.2399999999998" as="targetPoint"/>
                    </mxGeometry>
                </mxCell>
                <mxCell id="59" value="11&lt;br&gt;catch IOException" style="whiteSpace=wrap;html=1;aspect=fixed;" parent="1" vertex="1">
                    <mxGeometry x="180" y="860" width="80" height="80" as="geometry"/>
                </mxCell>
                <mxCell id="66" value="12&lt;br&gt;return" style="rounded=0;whiteSpace=wrap;html=1;" vertex="1" parent="1">
                    <mxGeometry x="50" y="1010" width="120" height="60" as="geometry"/>
                </mxCell>
            </root>
        </mxGraphModel>
    </diagram>
</mxfile>